<?xml version="1.0" encoding="UTF-8" standalone="no"?>
<svg
   xmlns:dc="http://purl.org/dc/elements/1.1/"
   xmlns:cc="http://creativecommons.org/ns#"
   xmlns:rdf="http://www.w3.org/1999/02/22-rdf-syntax-ns#"
   xmlns:svg="http://www.w3.org/2000/svg"
   xmlns="http://www.w3.org/2000/svg"
   xmlns:sodipodi="http://sodipodi.sourceforge.net/DTD/sodipodi-0.dtd"
   xmlns:inkscape="http://www.inkscape.org/namespaces/inkscape"
   width="223px"
   height="30px"
   viewBox="0 0 223 30"
   version="1.1"
   id="svg12"
   sodipodi:docname="githubbutton_sm_cortadito.svg"
   inkscape:version="1.0.2 (e86c870879, 2021-01-15)">
  <metadata
     id="metadata18">
    <rdf:RDF>
      <cc:Work
         rdf:about="">
        <dc:format>image/svg+xml</dc:format>
        <dc:type
           rdf:resource="http://purl.org/dc/dcmitype/StillImage" />
        <dc:title>Artboard</dc:title>
      </cc:Work>
    </rdf:RDF>
  </metadata>
  <defs
     id="defs16" />
  <sodipodi:namedview
     pagecolor="#ffffff"
     bordercolor="#666666"
     borderopacity="1"
     objecttolerance="10"
     gridtolerance="10"
     guidetolerance="10"
     inkscape:pageopacity="0"
     inkscape:pageshadow="2"
     inkscape:window-width="1920"
     inkscape:window-height="1017"
     id="namedview14"
     showgrid="false"
     inkscape:zoom="4.5605381"
     inkscape:cx="132.60837"
     inkscape:cy="84.671429"
     inkscape:window-x="-8"
     inkscape:window-y="-8"
     inkscape:window-maximized="1"
     inkscape:current-layer="Artboard"
     inkscape:document-rotation="0" />
  <!-- Generator: Sketch 53.2 (72643) - https://sketchapp.com -->
  <title
     id="title2">Artboard</title>
  <desc
     id="desc4">Created with Sketch.</desc>
  <g
     id="Artboard"
     stroke="none"
     stroke-width="1"
     fill="none"
     fill-rule="evenodd">
    <rect
       id="Rectangle"
       fill="#FF5E5B"
       x="0"
       y="0"
       width="223"
       height="30"
       rx="8" />
    <g
       id="Group"
       transform="translate(24.000000, 7.000000)"
       fill-rule="nonzero">
      <path
         d="M17.417931,-1.74615877e-12 L19.0255476,-1.74615877e-12 C22.126324,-1.74672838e-12 24.64,2.51367595 24.64,5.61445238 L24.64,5.94446654 C24.64,9.04524297 22.126324,11.5589189 19.0255476,11.5589189 L17.417931,11.5589189 L17.417931,13.2487143 C17.417931,14.6798419 16.2577729,15.84 14.8266453,15.84 L2.59128571,15.84 C1.16015813,15.84 -2.90320252e-13,14.6798419 -2.91766611e-13,13.2487143 L-2.91544566e-13,1.29564286 C-2.91632198e-13,0.580079066 0.580079066,-1.74624937e-12 1.29564286,-1.74638082e-12 L17.417931,-1.74615877e-12 Z M17.417931,2.99675676 L17.417931,8.56216216 L18.8835042,8.56216216 C20.4203485,8.56216216 21.6662069,7.31630373 21.6662069,5.77945946 C21.6662069,4.24261519 20.4203485,2.99675676 18.8835042,2.99675676 L17.417931,2.99675676 Z"
         id="Rectangle-2"
         fill="#FFFFFF" />
      <path
         d="M8.36,5.27684576 C8.76029424,4.10561525 9.70894135,3.52 11.2059413,3.52 C13.4514413,3.52 14.2839059,6.3136503 13.106875,8.14 C12.3221877,9.35756646 10.7398961,10.8975665 8.36,12.76 C5.98010394,10.8975665 4.39781228,9.35756646 3.61312502,8.14 C2.43609412,6.3136503 3.26855871,3.52 5.51405867,3.52 C7.01105865,3.52 7.95970576,4.10561525 8.36,5.27684576 Z"
         id="Path-2"
         fill="#FF5E5B" />
    </g>
    <path
       style="fill:#000080;stroke:#000080;stroke-width:0.219272;stroke-linecap:round;stroke-linejoin:round;stroke-dashoffset:69;stroke-opacity:1;paint-order:fill markers stroke"
       d="M 5.6581641,29.487595 C 2.6809939,28.535642 0.68349825,26.135554 0.22409362,22.958296 c -0.27953765,-1.933293 -0.27953765,-13.9832988 0,-15.9165913 C 0.69885238,3.758256 2.7655859,1.3558518 5.905334,0.43773974 6.9860247,0.12172865 16.764346,0.08947886 111.5,0.08947886 c 94.73565,0 104.51398,0.03224979 105.59467,0.34826088 3.13974,0.91811206 5.20649,3.32051626 5.68123,6.60396496 0.27955,1.9332925 0.27955,13.9832983 0,15.9165913 -0.47474,3.283448 -2.54149,5.685853 -5.68123,6.603964 -1.08095,0.316087 -10.84507,0.347171 -105.68929,0.336469 C 10.947953,29.887392 6.8587849,29.871495 5.6581641,29.487595 Z M 40.124423,22.566149 c 0.987894,-0.510861 1.318055,-1.155039 1.318055,-2.571674 V 18.72763 h 1.056564 c 1.895046,0 3.315063,-0.572339 4.539484,-1.829644 1.252859,-1.286505 1.644665,-2.302073 1.630316,-4.225786 -0.01745,-2.340296 -0.94721,-3.9581768 -2.894785,-5.0372771 l -1.15213,-0.6383644 -9.913648,-0.063244 c -9.726541,-0.06205 -9.922086,-0.054808 -10.360619,0.3837267 -0.429645,0.4296451 -0.446972,0.6985504 -0.446972,6.9371848 0,7.100308 0.08624,7.656016 1.289646,8.309993 0.867512,0.471442 14.022865,0.473142 14.934089,0.002 z"
       id="path845" />
    <path
       style="fill:#000080;stroke:#000080;stroke-width:0.219272;stroke-linecap:round;stroke-linejoin:round;stroke-dashoffset:69;stroke-opacity:1;paint-order:fill markers stroke"
       d="m 30.574898,18.083993 c -2.952179,-2.530369 -3.829873,-4.226369 -3.09606,-5.98263 0.698978,-1.67289 2.928102,-1.970957 4.217531,-0.563947 l 0.669592,0.730651 0.65542,-0.701505 c 2.225681,-2.3821795 5.434097,0.05379 4.142452,3.145131 -0.328659,0.786594 -2.883724,3.470753 -4.176939,4.387978 l -0.671415,0.476208 z"
       id="path847" />
    <path
       style="fill:#000080;stroke:#000080;stroke-width:0.219272;stroke-linecap:round;stroke-linejoin:round;stroke-dashoffset:69;stroke-opacity:1;paint-order:fill markers stroke"
       d="m 41.442478,12.807276 v -2.631268 h 1.189174 c 0.957625,0 1.319766,0.109885 1.859855,0.56434 2.069812,1.741632 0.807582,4.695162 -2.007485,4.697377 l -1.041544,8.2e-4 z"
       id="path849" />
    <text
       xml:space="preserve"
       style="font-style:normal;font-weight:normal;font-size:14.6667px;line-height:1.25;font-family:sans-serif;fill:#000000;fill-opacity:1;stroke:none"
       x="57.010815"
       y="18.857424"
       id="text853"><tspan
         sodipodi:role="line"
         id="tspan851"
         x="57.010815"
         y="18.857424"
         style="font-style:normal;font-variant:normal;font-weight:normal;font-stretch:normal;font-size:14.6667px;font-family:Nunito;-inkscape-font-specification:Nunito;fill:#ffffff;fill-opacity:1;stroke:none;stroke-opacity:1">Comprame un Cortado</tspan></text>
  </g>
</svg>
